<svg id="Layer_1" data-name="Layer 1" xmlns="http://www.w3.org/2000/svg" viewBox="0 0 32 32">
  <g>
    <path d="M3.27.51A2.49,2.49,0,1,0,5.76,3,2.5,2.5,0,0,0,3.27.51Z"/>
    <path d="M29.08,5.48A2.49,2.49,0,1,0,26.6,3,2.49,2.49,0,0,0,29.08,5.48Z"/>
    <path d="M16.18.51A2.49,2.49,0,1,0,18.66,3,2.5,2.5,0,0,0,16.18.51Z"/>
    <path d="M3.27,13.51A2.49,2.49,0,1,0,5.76,16,2.5,2.5,0,0,0,3.27,13.51Z"/>
    <path d="M29.08,13.51A2.49,2.49,0,1,0,31.57,16,2.49,2.49,0,0,0,29.08,13.51Z"/>
    <path d="M16.18,13.51A2.49,2.49,0,1,0,18.66,16,2.5,2.5,0,0,0,16.18,13.51Z"/>
    <path d="M3.27,26.52A2.49,2.49,0,1,0,5.76,29,2.49,2.49,0,0,0,3.27,26.52Z"/>
    <path d="M29.08,26.52A2.49,2.49,0,1,0,31.57,29,2.48,2.48,0,0,0,29.08,26.52Z"/>
    <path d="M16.18,26.52A2.49,2.49,0,1,0,18.66,29,2.49,2.49,0,0,0,16.18,26.52Z"/>
  </g>
</svg>
