<svg id="Layer_1" data-name="Layer 1" xmlns="http://www.w3.org/2000/svg" viewBox="0 0 32 32">
  <g>
    <path d="M26.49,25.29h-21A3.05,3.05,0,0,1,3,20.47l.61-.86h0a6.72,6.72,0,0,0,1.25-3.92v-3.6A11.13,11.13,0,0,1,8.4,4a11,11,0,0,1,8.34-3A11.3,11.3,0,0,1,27.12,12.42v3.27a6.72,6.72,0,0,0,1.25,3.92l.61.87a3,3,0,0,1-2.49,4.81ZM6.08,21.34l-.61.87,21,.08-.57-.95a9.69,9.69,0,0,1-1.8-5.65V12.42A8.31,8.31,0,0,0,16.54,4a8.13,8.13,0,0,0-8.66,8.1v3.6A9.69,9.69,0,0,1,6.08,21.34Z"/>
    <path d="M16,31.09h-.32a4.77,4.77,0,0,1-4-2.74,1.5,1.5,0,1,1,2.7-1.29,1.78,1.78,0,0,0,1.47,1,1.75,1.75,0,0,0,1.73-1,1.5,1.5,0,1,1,2.72,1.27A4.75,4.75,0,0,1,16,31.09Z"/>
  </g>
</svg>
