<svg id="Layer_1" data-name="Layer 1" xmlns="http://www.w3.org/2000/svg" viewBox="0 0 32 32">
  <path d="M28.87,19.75V12.27a3.38,3.38,0,0,0-3.48-5.75L19.34,3a3.38,3.38,0,0,0-6.69,0L6.52,6.56a3.39,3.39,0,0,0-3.41,5.83v7.24a3.39,3.39,0,0,0,3.5,5.79l6,3.47a3.38,3.38,0,0,0,6.73,0l5.95-3.43a3.26,3.26,0,0,0,1.5.36,3.38,3.38,0,0,0,2.06-6.07Zm-5.46,2.68a4.2,4.2,0,0,0,.06.62l-5.22,3A3.38,3.38,0,0,0,16,25.2a3.34,3.34,0,0,0-2.25.87L8.37,23a3.08,3.08,0,0,0,.06-.54,3.39,3.39,0,0,0-2.32-3.2V12.8A3.31,3.31,0,0,0,8.36,9l5.24-3a3.4,3.4,0,0,0,4.78,0l5.11,3a3.29,3.29,0,0,0-.08.71,3.4,3.4,0,0,0,2.46,3.25v6.33A3.4,3.4,0,0,0,23.41,22.43ZM26.81,9.2a.4.4,0,0,1,.39.4.4.4,0,0,1-.79,0A.4.4,0,0,1,26.81,9.2ZM16,3.13a.4.4,0,1,1,0,.79.4.4,0,0,1,0-.79ZM5,9.2a.4.4,0,0,1,.4.4A.39.39,0,0,1,5,10a.38.38,0,0,1-.39-.39A.39.39,0,0,1,5,9.2ZM5,22.82a.38.38,0,0,1-.39-.39A.39.39,0,0,1,5,22a.4.4,0,0,1,.4.4A.39.39,0,0,1,5,22.82ZM16,29a.39.39,0,0,1-.39-.4A.38.38,0,0,1,16,28.2a.39.39,0,0,1,.4.39A.4.4,0,0,1,16,29Zm10.82-6.17a.39.39,0,0,1-.4-.39.4.4,0,1,1,.79,0A.39.39,0,0,1,26.81,22.82Z"/>
</svg>
