<svg id="Layer_1" data-name="Layer 1" xmlns="http://www.w3.org/2000/svg" viewBox="0 0 32 32">
  <g>
    <path d="M27.44,6.8l-9.2-5.31a4.48,4.48,0,0,0-4.48,0L4.56,6.8a4.5,4.5,0,0,0-2.25,3.89V21.31A4.5,4.5,0,0,0,4.56,25.2l9.2,5.31a4.48,4.48,0,0,0,4.48,0l9.2-5.31a4.5,4.5,0,0,0,2.25-3.89V10.69A4.5,4.5,0,0,0,27.44,6.8Zm-.75,14.51a1.5,1.5,0,0,1-.75,1.29l-9.2,5.31a1.48,1.48,0,0,1-1.48,0L6.06,22.6a1.5,1.5,0,0,1-.75-1.29V10.69A1.5,1.5,0,0,1,6.06,9.4l9.2-5.31a1.47,1.47,0,0,1,1.48,0l9.2,5.31a1.5,1.5,0,0,1,.75,1.29Z"/>
    <path d="M22.37,10.45,16,14,10,10.62A1.5,1.5,0,1,0,8.5,13.25l6,3.29v7.14a1.5,1.5,0,0,0,3,0V16.54l6.31-3.46a1.5,1.5,0,1,0-1.44-2.63Z"/>
  </g>
</svg>
