<svg id="Layer_1" data-name="Layer 1" xmlns="http://www.w3.org/2000/svg" viewBox="0 0 32 32">
  <g>
    <path d="M16,31.34A3,3,0,0,1,14.52,31l-3.15-1.82a3,3,0,0,1-1.49-2.57V22.92a3,3,0,0,1,1.49-2.57l3.15-1.82a3,3,0,0,1,3,0l3.15,1.82a3,3,0,0,1,1.49,2.57v3.64a3,3,0,0,1-1.49,2.57L17.48,31A3,3,0,0,1,16,31.34Zm-3.12-8.4v3.62L16,28.35l3.11-1.82V22.92L16,21.13Z"/>
    <path d="M13.44,17.05a1.51,1.51,0,0,1-1-.35,1.49,1.49,0,0,1-.2-2.11,4.84,4.84,0,0,1,7.47,0,1.5,1.5,0,0,1-2.31,1.91,1.91,1.91,0,0,0-2.85,0A1.48,1.48,0,0,1,13.44,17.05Z"/>
    <path d="M8.84,13.78a1.58,1.58,0,0,1-.73-.18,1.51,1.51,0,0,1-.59-2,9.68,9.68,0,0,1,17,0A1.5,1.5,0,0,1,21.85,13a6.68,6.68,0,0,0-11.7,0A1.49,1.49,0,0,1,8.84,13.78Z"/>
    <path d="M27.92,9.92a1.49,1.49,0,0,1-1.24-.66,12.88,12.88,0,0,0-21.36,0A1.5,1.5,0,0,1,2.83,7.58a15.89,15.89,0,0,1,26.34,0,1.5,1.5,0,0,1-.41,2.08A1.44,1.44,0,0,1,27.92,9.92Z"/>
  </g>
</svg>
