<svg id="Layer_1" data-name="Layer 1" xmlns="http://www.w3.org/2000/svg" viewBox="0 0 32 32">
  <g>
    <path d="M16,16.77a1.5,1.5,0,0,1-1.5-1.5V8a1.5,1.5,0,0,1,3,0v7.29A1.5,1.5,0,0,1,16,16.77Z"/>
    <path d="M16,22a1.5,1.5,0,0,1-1.5-1.5A1.5,1.5,0,0,1,16.29,19l.28.08.26.14a1.37,1.37,0,0,1,.23.19,1.5,1.5,0,0,1,.44,1.06A1.5,1.5,0,0,1,16,22Z"/>
    <path d="M16,31.43a1.48,1.48,0,0,1-1-.36l-4.25-3.62H6.7a5.25,5.25,0,0,1-5.24-5.24V5.87A5.25,5.25,0,0,1,6.7.63H25.3a5.25,5.25,0,0,1,5.24,5.24V22.21a5.25,5.25,0,0,1-5.24,5.24H21.13L17,31.06A1.51,1.51,0,0,1,16,31.43ZM6.7,3.63A2.24,2.24,0,0,0,4.46,5.87V22.21A2.24,2.24,0,0,0,6.7,24.45h4.63a1.49,1.49,0,0,1,1,.36L16,28l3.59-3.13a1.48,1.48,0,0,1,1-.37H25.3a2.24,2.24,0,0,0,2.24-2.24V5.87A2.24,2.24,0,0,0,25.3,3.63Z"/>
  </g>
</svg>
