<svg id="Layer_1" data-name="Layer 1" xmlns="http://www.w3.org/2000/svg" viewBox="0 0 32 32">
  <path d="M16,31.4A1.48,1.48,0,0,1,15,31l-4.25-3.62H6.7a5.25,5.25,0,0,1-5.24-5.24V5.84A5.25,5.25,0,0,1,6.7.6H25.3a5.25,5.25,0,0,1,5.24,5.24V22.18a5.25,5.25,0,0,1-5.24,5.24H21.13L17,31A1.51,1.51,0,0,1,16,31.4ZM6.7,3.6A2.24,2.24,0,0,0,4.46,5.84V22.18A2.24,2.24,0,0,0,6.7,24.42h4.63a1.49,1.49,0,0,1,1,.36L16,27.92l3.59-3.13a1.48,1.48,0,0,1,1-.37H25.3a2.24,2.24,0,0,0,2.24-2.24V5.84A2.24,2.24,0,0,0,25.3,3.6Z"/>
</svg>
