<svg id="Layer_1" data-name="Layer 1" xmlns="http://www.w3.org/2000/svg" viewBox="0 0 32 32">
  <g>
    <path d="M10.72,4.56V2.34a1.5,1.5,0,0,0-3,0V4.56a5.17,5.17,0,0,0-3.84,5v8.53a5.17,5.17,0,0,0,3.84,5v6.58a1.5,1.5,0,1,0,3,0V23.06a5.17,5.17,0,0,0,3.85-5V9.54A5.17,5.17,0,0,0,10.72,4.56Zm1,13.51a2.3,2.3,0,0,1-2.3,2.3H9.06a2.3,2.3,0,0,1-2.3-2.3V9.54a2.31,2.31,0,0,1,2.3-2.3h.33a2.31,2.31,0,0,1,2.3,2.3Z"/>
    <path d="M24.26,11.15c0-.07,0-.13,0-.2V2.34a1.5,1.5,0,0,0-3,0V11a1.36,1.36,0,0,0,0,.2A5.06,5.06,0,0,0,17.53,16v6.39a5.06,5.06,0,0,0,3.75,4.88v2.33a1.5,1.5,0,0,0,3,0V27.31A5.07,5.07,0,0,0,28,22.43V16A5.07,5.07,0,0,0,24.26,11.15Zm1.08,11.28a2.41,2.41,0,0,1-2.4,2.4h-.33a2.41,2.41,0,0,1-2.4-2.4V16a2.4,2.4,0,0,1,2.4-2.4h.33a2.4,2.4,0,0,1,2.4,2.4Z"/>
  </g>
</svg>
