<svg id="Layer_1" data-name="Layer 1" xmlns="http://www.w3.org/2000/svg" viewBox="0 0 32 32">
  <g>
    <path d="M26.51,31.75h-21A5.25,5.25,0,0,1,.25,26.51v-21A5.25,5.25,0,0,1,5.49.25h21a5.25,5.25,0,0,1,5.24,5.24v21A5.25,5.25,0,0,1,26.51,31.75Zm-21-28.5A2.25,2.25,0,0,0,3.25,5.49v21a2.25,2.25,0,0,0,2.24,2.24h21a2.25,2.25,0,0,0,2.24-2.24v-21a2.25,2.25,0,0,0-2.24-2.24Z"/>
    <path d="M9.16,13.51a1.53,1.53,0,0,1-1.07-.44L6,11A1.5,1.5,0,0,1,8.09,8.83L9.16,9.89l3.3-3.31a1.51,1.51,0,0,1,2.12,0,1.49,1.49,0,0,1,0,2.12l-4.36,4.37A1.53,1.53,0,0,1,9.16,13.51Z"/>
    <path d="M25.41,11.19h-6.9a1.36,1.36,0,1,1,0-2.72h6.9a1.36,1.36,0,0,1,0,2.72Z"/>
    <path d="M9.16,24.85a1.53,1.53,0,0,1-1.07-.44L6,22.28a1.5,1.5,0,1,1,2.12-2.12l1.07,1.07,3.3-3.31A1.5,1.5,0,0,1,14.58,20l-4.36,4.37A1.53,1.53,0,0,1,9.16,24.85Z"/>
    <path d="M25.41,22.52h-6.9a1.36,1.36,0,0,1,0-2.72h6.9a1.36,1.36,0,0,1,0,2.72Z"/>
  </g>
</svg>
