<svg id="Layer_1" data-name="Layer 1" xmlns="http://www.w3.org/2000/svg" viewBox="0 0 32 32">
  <g>
    <path d="M5.48,23.77A5.25,5.25,0,0,1,.24,18.53V5.39A5.25,5.25,0,0,1,5.48.15H18.61a5.25,5.25,0,0,1,5.24,5.24,1.5,1.5,0,1,1-3,0,2.24,2.24,0,0,0-2.24-2.24H5.48A2.24,2.24,0,0,0,3.24,5.39V18.53a2.24,2.24,0,0,0,2.24,2.24,1.5,1.5,0,0,1,0,3Z"/>
    <path d="M26.52,31.68H13.39a5.25,5.25,0,0,1-5.24-5.24V13.3a5.25,5.25,0,0,1,5.24-5.24H26.52a5.25,5.25,0,0,1,5.24,5.24V26.44A5.25,5.25,0,0,1,26.52,31.68ZM13.39,11.06a2.24,2.24,0,0,0-2.24,2.24V26.44a2.24,2.24,0,0,0,2.24,2.24H26.52a2.24,2.24,0,0,0,2.24-2.24V13.3a2.24,2.24,0,0,0-2.24-2.24Z"/>
  </g>
</svg>
