<svg id="Layer_1" data-name="Layer 1" xmlns="http://www.w3.org/2000/svg" viewBox="0 0 32 32">
  <g>
    <path d="M9.91,15.26H5.76A5.25,5.25,0,0,1,.52,10V5.87A5.25,5.25,0,0,1,5.76.63H9.91a5.25,5.25,0,0,1,5.24,5.24V10A5.25,5.25,0,0,1,9.91,15.26ZM5.76,3.63A2.24,2.24,0,0,0,3.52,5.87V10a2.25,2.25,0,0,0,2.24,2.25H9.91A2.25,2.25,0,0,0,12.15,10V5.87A2.24,2.24,0,0,0,9.91,3.63Z"/>
    <path d="M9.91,31.14H5.76A5.25,5.25,0,0,1,.52,25.89V21.75a5.25,5.25,0,0,1,5.24-5.24H9.91a5.25,5.25,0,0,1,5.24,5.24v4.14A5.25,5.25,0,0,1,9.91,31.14ZM5.76,19.51a2.24,2.24,0,0,0-2.24,2.24v4.14a2.25,2.25,0,0,0,2.24,2.25H9.91a2.25,2.25,0,0,0,2.24-2.25V21.75a2.24,2.24,0,0,0-2.24-2.24Z"/>
    <path d="M25.9,15.26H21.75A5.25,5.25,0,0,1,16.51,10V5.87A5.25,5.25,0,0,1,21.75.63H25.9a5.25,5.25,0,0,1,5.24,5.24V10A5.25,5.25,0,0,1,25.9,15.26ZM21.75,3.63a2.24,2.24,0,0,0-2.24,2.24V10a2.25,2.25,0,0,0,2.24,2.25H25.9A2.24,2.24,0,0,0,28.14,10V5.87A2.24,2.24,0,0,0,25.9,3.63Z"/>
    <path d="M25.9,31.14H21.75a5.25,5.25,0,0,1-5.24-5.25V21.75a5.25,5.25,0,0,1,5.24-5.24H25.9a5.25,5.25,0,0,1,5.24,5.24v4.14A5.25,5.25,0,0,1,25.9,31.14ZM21.75,19.51a2.24,2.24,0,0,0-2.24,2.24v4.14a2.25,2.25,0,0,0,2.24,2.25H25.9a2.24,2.24,0,0,0,2.24-2.25V21.75a2.24,2.24,0,0,0-2.24-2.24Z"/>
  </g>
</svg>
