<svg id="Layer_1" data-name="Layer 1" xmlns="http://www.w3.org/2000/svg" viewBox="0 0 32 32">
  <g>
    <path d="M16,.39A15.61,15.61,0,1,0,31.61,16,15.62,15.62,0,0,0,16,.39Zm0,28.22A12.61,12.61,0,1,1,28.61,16,12.62,12.62,0,0,1,16,28.61Z"/>
    <path d="M21.46,10.54a1.49,1.49,0,0,0-2.12,0L16,13.88l-3.34-3.34a1.5,1.5,0,0,0-2.12,2.12L13.88,16l-3.34,3.34a1.49,1.49,0,0,0,0,2.12,1.45,1.45,0,0,0,1.06.44,1.48,1.48,0,0,0,1.06-.44L16,18.12l3.34,3.34a1.48,1.48,0,0,0,1.06.44,1.45,1.45,0,0,0,1.06-.44,1.49,1.49,0,0,0,0-2.12L18.12,16l3.34-3.34A1.49,1.49,0,0,0,21.46,10.54Z"/>
  </g>
</svg>
