<svg id="Layer_1" data-name="Layer 1" xmlns="http://www.w3.org/2000/svg" viewBox="0 0 32 32">
  <g>
    <path d="M25.88,31.14H21.73a5.25,5.25,0,0,1-5.24-5.25V21.75a5.25,5.25,0,0,1,5.24-5.24h4.15a5.25,5.25,0,0,1,5.24,5.24v4.14A5.25,5.25,0,0,1,25.88,31.14ZM21.73,19.51a2.24,2.24,0,0,0-2.24,2.24v4.14a2.25,2.25,0,0,0,2.24,2.25h4.15a2.25,2.25,0,0,0,2.24-2.25V21.75a2.24,2.24,0,0,0-2.24-2.24Z"/>
    <path d="M9.89,15.26H5.74A5.25,5.25,0,0,1,.5,10V5.87A5.25,5.25,0,0,1,5.74.63H9.89a5.25,5.25,0,0,1,5.24,5.24V10A5.25,5.25,0,0,1,9.89,15.26ZM5.74,3.63A2.24,2.24,0,0,0,3.5,5.87V10a2.24,2.24,0,0,0,2.24,2.25H9.89A2.25,2.25,0,0,0,12.13,10V5.87A2.24,2.24,0,0,0,9.89,3.63Z"/>
    <path d="M13.63,30.24H13.5A12.91,12.91,0,0,1,1.83,18.86,1.49,1.49,0,0,1,3.15,17.2a1.51,1.51,0,0,1,1.66,1.32,9.89,9.89,0,0,0,9,8.73,1.5,1.5,0,0,1-.13,3Z"/>
    <path d="M28.72,15.25a1.5,1.5,0,0,1-1.5-1.38,9.85,9.85,0,0,0-8.84-9,1.5,1.5,0,0,1,.3-3,12.86,12.86,0,0,1,11.53,11.8,1.49,1.49,0,0,1-1.37,1.61Z"/>
  </g>
</svg>
