<svg id="Layer_1" data-name="Layer 1" xmlns="http://www.w3.org/2000/svg" viewBox="0 0 32 32">
  <g>
    <path d="M10.37,16.29a1.5,1.5,0,0,0-2.13-2.12l-1.3,1.3a9.29,9.29,0,0,1,17.34-4.09,1.5,1.5,0,0,0,2.6-1.5A12.28,12.28,0,0,0,4,15.38L2.73,14.17A1.5,1.5,0,0,0,.61,16.29l3.82,3.82a1.5,1.5,0,0,0,1.06.44,1.52,1.52,0,0,0,1.06-.44Z"/>
    <path d="M31.45,17.4l-3.82-3.82a1.49,1.49,0,0,0-2.12,0L21.69,17.4a1.49,1.49,0,0,0,0,2.12,1.51,1.51,0,0,0,2.12,0l1.47-1.47A9.29,9.29,0,0,1,8.39,21a1.5,1.5,0,0,0-2.53,1.62,12.29,12.29,0,0,0,22.39-4.19l1.08,1.07a1.49,1.49,0,0,0,1.06.44,1.53,1.53,0,0,0,1.06-.44A1.51,1.51,0,0,0,31.45,17.4Z"/>
  </g>
</svg>
