<svg id="Layer_1" data-name="Layer 1" xmlns="http://www.w3.org/2000/svg" viewBox="0 0 32 32">
  <path d="M29.33,7.7,25.56,3.93a1.49,1.49,0,0,0-2.12,0,1.51,1.51,0,0,0,0,2.12l1.39,1.39a2.56,2.56,0,0,0,1.72,4.45l.22,0V27.06a1.63,1.63,0,0,1-1.63,1.63H21.72A4.52,4.52,0,0,0,22,27.08V5A4.6,4.6,0,0,0,17.44.45H6.51A4.6,4.6,0,0,0,1.91,5v22a4.6,4.6,0,0,0,4.6,4.59H17.25l.19,0h7.7a4.63,4.63,0,0,0,4.63-4.63V8.76A1.5,1.5,0,0,0,29.33,7.7ZM6.51,3.41H17.44A1.63,1.63,0,0,1,19.07,5v7.15H4.88V5A1.63,1.63,0,0,1,6.51,3.41ZM4.88,27.08V15.16H19.07V27.08a1.62,1.62,0,0,1-1.45,1.61h-.18l-.19,0H6.51A1.63,1.63,0,0,1,4.88,27.08Z"/>
</svg>
