<svg id="Layer_1" data-name="Layer 1" xmlns="http://www.w3.org/2000/svg" viewBox="0 0 32 32">
  <g>
    <path d="M12,19.08a5.15,5.15,0,0,1-4-2.08c-.71-.77-1.06-1.11-1.83-1.11S5,16.23,4.27,17a1.5,1.5,0,1,1-2.2-2,5.13,5.13,0,0,1,4-2.08,5.17,5.17,0,0,1,4,2.08c.7.77,1,1.11,1.83,1.11s1.12-.34,1.83-1.11a5.17,5.17,0,0,1,4-2.08,5.17,5.17,0,0,1,4,2.08,1.5,1.5,0,1,1-2.21,2c-.71-.77-1.05-1.11-1.84-1.11S16.73,16.23,16,17A5.17,5.17,0,0,1,12,19.08Z"/>
    <path d="M24.82,7.19a5,5,0,0,1-4-2.09c-.68-.76-1-1.09-1.74-1.09s-1.05.33-1.73,1.09a5,5,0,0,1-4,2.09,5,5,0,0,1-4-2.09,4.75,4.75,0,0,0-.94-.89,1.5,1.5,0,1,1,1.56-2.56A7.18,7.18,0,0,1,11.68,3.1c.68.76,1,1.09,1.73,1.09s1.06-.33,1.74-1.09a5,5,0,0,1,4-2.09,5,5,0,0,1,4,2.09c.68.76,1,1.09,1.74,1.09s1.06-.33,1.73-1.09A7.57,7.57,0,0,1,28,1.76a1.5,1.5,0,1,1,1.67,2.49,4.94,4.94,0,0,0-.88.85A5,5,0,0,1,24.82,7.19Z"/>
    <path d="M24.82,31.51a5,5,0,0,1-4-2.1c-.68-.76-1-1.09-1.74-1.09s-1.05.33-1.73,1.09a5,5,0,0,1-4,2.1,5,5,0,0,1-4-2.1,5.06,5.06,0,0,0-.94-.89A1.5,1.5,0,0,1,10.07,26a7.18,7.18,0,0,1,1.61,1.45c.68.76,1,1.1,1.73,1.1s1.06-.34,1.74-1.1a5,5,0,0,1,4-2.09,5,5,0,0,1,4,2.09c.68.76,1,1.1,1.74,1.1s1.06-.34,1.73-1.1A7.57,7.57,0,0,1,28,26.07a1.5,1.5,0,1,1,1.67,2.49,5.32,5.32,0,0,0-.88.85A5,5,0,0,1,24.82,31.51Z"/>
  </g>
</svg>
