<svg id="Layer_1" data-name="Layer 1" xmlns="http://www.w3.org/2000/svg" viewBox="0 0 32 32">
  <g>
    <path d="M23.72,31.63H5.42A5.25,5.25,0,0,1,.18,26.39V8.09A5.25,5.25,0,0,1,5.42,2.85H18a1.5,1.5,0,1,1,0,3H5.42A2.25,2.25,0,0,0,3.18,8.09v18.3a2.25,2.25,0,0,0,2.24,2.24h18.3A2.25,2.25,0,0,0,26,26.39V13.31a1.5,1.5,0,0,1,3,0V26.39A5.25,5.25,0,0,1,23.72,31.63Z"/>
    <path d="M25.76,11.23a5.36,5.36,0,1,1,5.36-5.36A5.36,5.36,0,0,1,25.76,11.23Zm0-7.71a2.36,2.36,0,1,0,2.36,2.35A2.35,2.35,0,0,0,25.76,3.52Z"/>
  </g>
</svg>
