<svg id="Layer_1" data-name="Layer 1" xmlns="http://www.w3.org/2000/svg" viewBox="0 0 32 32">
  <g>
    <path d="M2,12.21a1.5,1.5,0,0,1-1.5-1.5v-5A5.25,5.25,0,0,1,5.76.52H11a1.5,1.5,0,0,1,0,3H5.76A2.24,2.24,0,0,0,3.52,5.76v5A1.5,1.5,0,0,1,2,12.21Z"/>
    <path d="M10.84,31.48H5.76A5.25,5.25,0,0,1,.52,26.24v-5a1.5,1.5,0,0,1,3,0v5a2.24,2.24,0,0,0,2.24,2.24h5.08a1.5,1.5,0,0,1,0,3Z"/>
    <path d="M26.24,31.48H21.15a1.5,1.5,0,0,1,0-3h5.09a2.24,2.24,0,0,0,2.24-2.24v-5a1.5,1.5,0,0,1,3,0v5A5.25,5.25,0,0,1,26.24,31.48Z"/>
    <path d="M30,12.19a1.5,1.5,0,0,1-1.5-1.5V5.76a2.24,2.24,0,0,0-2.24-2.24H21a1.5,1.5,0,0,1,0-3h5.23a5.25,5.25,0,0,1,5.24,5.24v4.93A1.5,1.5,0,0,1,30,12.19Z"/>
  </g>
</svg>
