<svg id="Layer_1" data-name="Layer 1" xmlns="http://www.w3.org/2000/svg" viewBox="0 0 32 32">
  <g>
    <path d="M11.73,9l2.86-2.85V25.09a1.5,1.5,0,0,0,3,0V6.18L20.44,9a1.51,1.51,0,0,0,2.13,0,1.51,1.51,0,0,0,0-2.12L17.15,1.5A1.49,1.49,0,0,0,15,1.5L9.61,6.91A1.5,1.5,0,0,0,11.73,9Z"/>
    <path d="M25.83,12H22.12a1.5,1.5,0,0,0,0,3h3.71a2.14,2.14,0,0,1,2.24,2v9.25a2.14,2.14,0,0,1-2.24,2H6.34a2.15,2.15,0,0,1-2.24-2V17a2.15,2.15,0,0,1,2.24-2H10.2a1.5,1.5,0,0,0,0-3H6.34A5.15,5.15,0,0,0,1.1,17v9.25a5.14,5.14,0,0,0,5.24,5H25.83a5.14,5.14,0,0,0,5.24-5V17A5.15,5.15,0,0,0,25.83,12Z"/>
  </g>
</svg>
