<svg id="Layer_1" data-name="Layer 1" xmlns="http://www.w3.org/2000/svg" viewBox="0 0 32 32">
  <g>
    <path d="M18,31.84H14a3.28,3.28,0,0,1-3.28-3.28V26.44a.73.73,0,0,0-.38-.65.74.74,0,0,0-.74,0L7.75,26.86a3.3,3.3,0,0,1-4.48-1.2l-2-3.49a3.27,3.27,0,0,1,1.2-4.48L4.3,16.63A.75.75,0,0,0,4.67,16a.73.73,0,0,0-.37-.64L2.46,14.28a3.29,3.29,0,0,1-1.53-2A3.24,3.24,0,0,1,1.26,9.8l2-3.49a3.29,3.29,0,0,1,2-1.53,3.23,3.23,0,0,1,2.49.33L9.59,6.17a.74.74,0,0,0,.74,0,.73.73,0,0,0,.38-.65V3.4A3.28,3.28,0,0,1,14,.12h4A3.28,3.28,0,0,1,21.29,3.4V5.52a.73.73,0,0,0,.38.65.75.75,0,0,0,.74,0l1.84-1.06a3.28,3.28,0,0,1,4.48,1.2l2,3.49h0a3.24,3.24,0,0,1,.33,2.49,3.29,3.29,0,0,1-1.53,2L27.7,15.34a.73.73,0,0,0-.37.64.75.75,0,0,0,.37.65l1.84,1.06a3.27,3.27,0,0,1,1.2,4.48l-2,3.49a3.29,3.29,0,0,1-4.48,1.2l-1.84-1.07a.74.74,0,0,0-.74,0,.73.73,0,0,0-.38.65v2.12A3.28,3.28,0,0,1,18,31.84Zm-8-8.68a3.28,3.28,0,0,1,3.28,3.28v2.12a.76.76,0,0,0,.75.75h4a.76.76,0,0,0,.75-.75V26.44a3.28,3.28,0,0,1,4.92-2.84l1.84,1.06a.74.74,0,0,0,1-.27l2-3.49a.75.75,0,0,0-.28-1l-1.83-1.06a3.28,3.28,0,0,1,0-5.68l1.83-1.06a.72.72,0,0,0,.35-.45.76.76,0,0,0-.07-.57l-2-3.48a.74.74,0,0,0-1-.28L23.68,8.36a3.28,3.28,0,0,1-4.92-2.84V3.4A.75.75,0,0,0,18,2.66H14a.75.75,0,0,0-.75.74V5.52A3.28,3.28,0,0,1,8.32,8.36L6.49,7.3a.75.75,0,0,0-1,.28l-2,3.48a.76.76,0,0,0-.07.57.72.72,0,0,0,.35.45l1.83,1.06a3.28,3.28,0,0,1,0,5.68L3.73,19.88a.75.75,0,0,0-.28,1l2,3.49a.75.75,0,0,0,1,.27L8.32,23.6A3.26,3.26,0,0,1,10,23.16Z"/>
    <path d="M16,21.44A5.46,5.46,0,1,1,21.46,16,5.47,5.47,0,0,1,16,21.44Zm0-8.38A2.92,2.92,0,1,0,18.92,16,2.92,2.92,0,0,0,16,13.06Z"/>
  </g>
</svg>
