<svg id="Layer_1" data-name="Layer 1" xmlns="http://www.w3.org/2000/svg" viewBox="0 0 32 32">
  <g>
    <path d="M6.62,31.74h0a2.69,2.69,0,0,1-2.47-1.43c-1.41-2.68,1.46-7.92,1.94-8.61a27.93,27.93,0,0,1,6.41-6.2c.14-.64.27-1.28.41-1.92a26.89,26.89,0,0,1-5.09,1.18,1.5,1.5,0,0,1-.35-3,26.16,26.16,0,0,0,6.17-1.69c.16-.78.3-1.49.43-2.09l.37-1.8C15,3.48,16.23,1.46,17.79.67a3.48,3.48,0,0,1,3.07,0,2.66,2.66,0,0,1,1.5,2.28c.26,2.41-1.65,6.15-4.09,8a13.81,13.81,0,0,1-2,1.27c-.08.41-.17.82-.26,1.23,2.63-1.14,4.09-.51,4.75,0a2.69,2.69,0,0,1,.8,1,5.85,5.85,0,0,1,3.38-1.84,3.07,3.07,0,0,1,2.51,1.12,3.86,3.86,0,0,1,.68,3.05,14.88,14.88,0,0,1-.72,2.23,1.5,1.5,0,1,1-2.77-1.15,12.52,12.52,0,0,0,.55-1.71,1,1,0,0,0-.07-.53h-.18c-.68.19-3.08,2.65-5,5.25a1.5,1.5,0,0,1-2.52-1.6,19.31,19.31,0,0,0,1.42-3.42,4.22,4.22,0,0,0-2.09.63,14.78,14.78,0,0,0-1.53.91c-.53,2.45-1,4.4-1.23,5.24C12.71,26.73,10.42,31.74,6.62,31.74Zm4.84-11.55a19.76,19.76,0,0,0-2.9,3.21c-.89,1.28-1.95,4.29-1.81,5.33,1.45-.21,3.11-2.93,4.34-7.06C11.18,21.36,11.31,20.85,11.46,20.19Zm7.89-16.9a.56.56,0,0,0-.21.06c-.56.29-1.35,1.49-1.76,3.47L17.16,7.9A7.74,7.74,0,0,0,19.4,3.3Z"/>
    <path d="M29.74,26.22H16.37a1.5,1.5,0,0,1,0-3H29.74a1.5,1.5,0,0,1,0,3Z"/>
  </g>
</svg>
