<svg id="Layer_1" data-name="Layer 1" xmlns="http://www.w3.org/2000/svg" viewBox="0 0 32 32">
  <g>
    <path d="M11.45,20.41a5.78,5.78,0,1,1,5.78-5.78A5.79,5.79,0,0,1,11.45,20.41Zm0-8.56a2.78,2.78,0,1,0,2.78,2.78A2.79,2.79,0,0,0,11.45,11.85Z"/>
    <path d="M19.08,31.43H3.82a2.77,2.77,0,0,1-2.23-1.12,2.8,2.8,0,0,1-.44-2.47c1.16-3.89,5.4-6.61,10.3-6.61S20.6,24,21.76,27.84a2.79,2.79,0,0,1-2.68,3.59Zm-.2-2.73h0ZM4.12,28.43H18.79c-.9-2.45-3.93-4.2-7.34-4.2S5,26,4.12,28.43Z"/>
    <path d="M22.69,19.51A4.54,4.54,0,1,1,27.23,15,4.54,4.54,0,0,1,22.69,19.51Zm0-6.57a2,2,0,1,0,2,2A2,2,0,0,0,22.69,12.94Z"/>
    <path d="M28.56,29.06H25.43a1.25,1.25,0,0,1,0-2.5h2.76c-.74-1.78-3-3-5.5-3a1.25,1.25,0,0,1,0-2.5c3.82,0,7.11,2.12,8,5.16a2.25,2.25,0,0,1-2.14,2.88Z"/>
  </g>
</svg>
