<svg id="Layer_1" data-name="Layer 1" xmlns="http://www.w3.org/2000/svg" viewBox="0 0 32 32">
  <g>
    <path d="M4.34,31.34a3.83,3.83,0,0,1-4-3.68V11.79a3.83,3.83,0,0,1,4-3.68,3.84,3.84,0,0,1,4,3.68V27.66A3.84,3.84,0,0,1,4.34,31.34Zm0-20.4c-.61,0-1.13.39-1.13.85V27.66c0,.46.52.85,1.13.85s1.14-.39,1.14-.85V11.79C5.48,11.33,5,10.94,4.34,10.94Z"/>
    <path d="M27.66,31.28a3.69,3.69,0,0,1-3.9-3.42V18.72a3.69,3.69,0,0,1,3.9-3.42,3.69,3.69,0,0,1,3.9,3.42v9.14A3.69,3.69,0,0,1,27.66,31.28Zm0-13.28c-.68,0-1.2.39-1.2.72v9.14c0,.33.52.72,1.2.72s1.19-.39,1.19-.72V18.72C28.85,18.39,28.33,18,27.66,18Z"/>
    <path d="M16,31.43a4.05,4.05,0,0,1-4.05-4.05V5.93a4,4,0,1,1,8.09,0V27.38A4.05,4.05,0,0,1,16,31.43ZM16,4.88a1,1,0,0,0-1.05,1V27.38a1,1,0,1,0,2.09,0V5.93A1,1,0,0,0,16,4.88Z"/>
  </g>
</svg>
