<svg id="Layer_1" data-name="Layer 1" xmlns="http://www.w3.org/2000/svg" viewBox="0 0 32 32">
  <g>
    <path d="M12.93,12.93a1.51,1.51,0,0,0-2.12,0L8.38,15.36V5.63a2.24,2.24,0,0,1,2.24-2.24h9.51a1.5,1.5,0,0,0,0-3H10.62A5.25,5.25,0,0,0,5.38,5.63v9.73L3,12.93A1.5,1.5,0,0,0,.83,15.06l5,5a1.49,1.49,0,0,0,1.06.44,1.53,1.53,0,0,0,1.06-.44l5-5A1.52,1.52,0,0,0,12.93,12.93Z"/>
    <path d="M31.17,17.44l-5-5a1.55,1.55,0,0,0-2.12,0l-5,5A1.5,1.5,0,0,0,20.13,20a1.49,1.49,0,0,0,1.06-.44l2.43-2.43v9.24a2.24,2.24,0,0,1-2.24,2.24H11.87a1.5,1.5,0,1,0,0,3h9.51a5.25,5.25,0,0,0,5.24-5.24V17.13l2.43,2.43a1.51,1.51,0,0,0,2.12,0A1.49,1.49,0,0,0,31.17,17.44Z"/>
  </g>
</svg>
