<svg id="Layer_1" data-name="Layer 1" xmlns="http://www.w3.org/2000/svg" viewBox="0 0 32 32">
  <g>
    <path d="M7.79,15.26a7.32,7.32,0,1,1,7.32-7.32A7.33,7.33,0,0,1,7.79,15.26Zm0-11.63a4.32,4.32,0,1,0,4.32,4.31A4.31,4.31,0,0,0,7.79,3.63Z"/>
    <path d="M13.61,30.24h-.13A12.93,12.93,0,0,1,1.8,18.86,1.5,1.5,0,0,1,3.13,17.2a1.52,1.52,0,0,1,1.66,1.32,9.89,9.89,0,0,0,9,8.73,1.5,1.5,0,0,1-.13,3Z"/>
    <path d="M28.7,15.25a1.5,1.5,0,0,1-1.5-1.38,9.85,9.85,0,0,0-8.85-9,1.5,1.5,0,0,1,.31-3,12.87,12.87,0,0,1,11.53,11.8,1.49,1.49,0,0,1-1.38,1.61Z"/>
    <path d="M23.78,31.14a7.32,7.32,0,1,1,7.32-7.32A7.33,7.33,0,0,1,23.78,31.14Zm0-11.63a4.32,4.32,0,1,0,4.32,4.31A4.32,4.32,0,0,0,23.78,19.51Z"/>
  </g>
</svg>
