<svg id="Layer_1" data-name="Layer 1" xmlns="http://www.w3.org/2000/svg" viewBox="0 0 32 32">
  <g>
    <path d="M10.07,1.5a1.63,1.63,0,0,0-.49-.33h0a1.56,1.56,0,0,0-1.1,0h0A1.51,1.51,0,0,0,8,1.5l-5,5A1.5,1.5,0,0,0,4,9.05a1.51,1.51,0,0,0,1.06-.44L7.51,6.18V19.5a1.5,1.5,0,0,0,3,0V6.18l2.43,2.43a1.51,1.51,0,0,0,2.12,0,1.49,1.49,0,0,0,0-2.12Z"/>
    <path d="M29.44,23.39a1.51,1.51,0,0,0-2.12,0l-2.43,2.43V12.5a1.5,1.5,0,0,0-3,0V25.82l-2.43-2.43a1.5,1.5,0,0,0-2.13,2.12l5,5a1.56,1.56,0,0,0,.5.33h0a1.54,1.54,0,0,0,1.09,0h0a1.63,1.63,0,0,0,.49-.33l5-5A1.51,1.51,0,0,0,29.44,23.39Z"/>
  </g>
</svg>
