<svg id="Layer_1" data-name="Layer 1" xmlns="http://www.w3.org/2000/svg" viewBox="0 0 32 32">
  <g>
    <path d="M12.44,14.54a1.51,1.51,0,0,0,1.06,2.57,1.49,1.49,0,0,0,1.06-.44l5-5a1.37,1.37,0,0,0,.19-.23l0,0a2.12,2.12,0,0,0,.11-.21l0-.09.06-.19a1.53,1.53,0,0,0,0-.3,1.36,1.36,0,0,0,0-.29l-.06-.2,0-.08a1.39,1.39,0,0,0-.11-.21l0-.05a1.37,1.37,0,0,0-.19-.23l-5-5a1.5,1.5,0,0,0-2.12,2.12l2.43,2.43H1.56a1.5,1.5,0,0,0,0,3H14.87Z"/>
    <path d="M30.44,19.89H17.13l2.43-2.43a1.5,1.5,0,1,0-2.12-2.13l-5,5a1.37,1.37,0,0,0-.19.23l0,.05a2.12,2.12,0,0,0-.11.21l0,.09-.06.19a1.53,1.53,0,0,0,0,.3,1.36,1.36,0,0,0,0,.29l.06.2,0,.08a1.39,1.39,0,0,0,.11.21l0,0a1.37,1.37,0,0,0,.19.23l5,5a1.49,1.49,0,0,0,1.06.44,1.53,1.53,0,0,0,1.06-.44,1.51,1.51,0,0,0,0-2.12l-2.43-2.43H30.44a1.5,1.5,0,0,0,0-3Z"/>
  </g>
</svg>
