<svg id="Layer_1" data-name="Layer 1" xmlns="http://www.w3.org/2000/svg" viewBox="0 0 32 32">
  <g>
    <path d="M26.39,31.63H5.61A5.25,5.25,0,0,1,.37,26.39V5.61A5.25,5.25,0,0,1,5.61.37H26.39a5.25,5.25,0,0,1,5.24,5.24V26.39A5.25,5.25,0,0,1,26.39,31.63ZM5.61,3.37A2.25,2.25,0,0,0,3.37,5.61V26.39a2.25,2.25,0,0,0,2.24,2.24H26.39a2.25,2.25,0,0,0,2.24-2.24V5.61a2.25,2.25,0,0,0-2.24-2.24Z"/>
    <path d="M7.86,21.23A1.3,1.3,0,0,1,7,19l6.09-5.35a1.3,1.3,0,0,1,1.7,0l3.44,2.94,4.51-4.17a1.3,1.3,0,0,1,1.76,1.91l-5.35,5a1.31,1.31,0,0,1-1.73,0l-3.46-3L8.71,20.9A1.26,1.26,0,0,1,7.86,21.23Z"/>
  </g>
</svg>
