<svg id="Layer_1" data-name="Layer 1" xmlns="http://www.w3.org/2000/svg" viewBox="0 0 32 32">
  <g>
    <path d="M28.47,30.83H3.72A3.18,3.18,0,0,1,.54,27.65V20.77a3.19,3.19,0,0,1,3.18-3.18H28.47a3.18,3.18,0,0,1,3.17,3.18v6.88A3.17,3.17,0,0,1,28.47,30.83ZM3.72,20.59a.18.18,0,0,0-.18.18v6.88a.18.18,0,0,0,.18.18H28.47a.17.17,0,0,0,.17-.18V20.77a.17.17,0,0,0-.17-.18Z"/>
    <path d="M20.93,17.3a1.5,1.5,0,0,1-1.06-2.56L26.21,8.4a.17.17,0,0,0,0-.25L21.34,3.28a.2.2,0,0,0-.25,0L7.55,16.82A1.5,1.5,0,0,1,5.43,14.7L19,1.16a3.24,3.24,0,0,1,4.49,0L28.33,6a3.19,3.19,0,0,1,0,4.5L22,16.86A1.51,1.51,0,0,1,20.93,17.3Z"/>
    <path d="M7.72,26.7a2.49,2.49,0,1,1,2.49-2.49A2.5,2.5,0,0,1,7.72,26.7Zm0-3a.52.52,0,1,0,.51.51A.51.51,0,0,0,7.72,23.7Z"/>
  </g>
</svg>
