<svg id="Layer_1" data-name="Layer 1" xmlns="http://www.w3.org/2000/svg" viewBox="0 0 32 32">
  <g>
    <path d="M16,31.88A15.62,15.62,0,1,1,31.61,16.26,15.63,15.63,0,0,1,16,31.88ZM16,3.65A12.62,12.62,0,1,0,28.61,16.26,12.62,12.62,0,0,0,16,3.65Z"/>
    <path d="M16,24H13.61a1.5,1.5,0,1,1,0-3h.89V15.45a1.5,1.5,0,0,1,3,0v7A1.5,1.5,0,0,1,16,24Z"/>
    <path d="M16,11.64a1.36,1.36,0,0,1-.29,0l-.28-.08-.26-.14a2.11,2.11,0,0,1-.23-.19,1.45,1.45,0,0,1-.19-.23,1.26,1.26,0,0,1-.13-.26,1.31,1.31,0,0,1-.09-.28,1.36,1.36,0,0,1,0-.29,1.52,1.52,0,0,1,.44-1.06,1.55,1.55,0,0,1,2.12,0,1.52,1.52,0,0,1,.44,1.06,1.36,1.36,0,0,1,0,.29,2.29,2.29,0,0,1-.08.28,2.15,2.15,0,0,1-.14.26,1.45,1.45,0,0,1-.19.23A1.52,1.52,0,0,1,16,11.64Z"/>
  </g>
</svg>
