<svg id="Layer_1" data-name="Layer 1" xmlns="http://www.w3.org/2000/svg" viewBox="0 0 32 32">
  <g>
    <path d="M23.61,31.84H7.25a3.41,3.41,0,0,1-3.41-3.41V19.79a3.41,3.41,0,0,1,3.34-3.4l4-.43V3.44a1.25,1.25,0,0,1,.6-1.08l3.31-2a1.27,1.27,0,0,1,1.33,0l3.34,2.05a1.26,1.26,0,0,1,.61,1.08V6.81a1.29,1.29,0,0,1-.33.85l-.62.69.64.74a1.26,1.26,0,0,1,.31.83v1.67a1.29,1.29,0,0,1-.32.84l-.59.65.62.75a1.31,1.31,0,0,1,.29.81V16l3.33.41A3.4,3.4,0,0,1,27,19.79v8.64A3.41,3.41,0,0,1,23.61,31.84Zm-9.9-27.7v13a1.27,1.27,0,0,1-1.13,1.26l-5.19.55H7.25a.87.87,0,0,0-.87.87v8.64a.88.88,0,0,0,.87.88H23.61a.88.88,0,0,0,.88-.88V19.79a.87.87,0,0,0-.88-.87h-.15L19,18.36a1.27,1.27,0,0,1-1.12-1.26v-2l-1-1.23a1.26,1.26,0,0,1,0-1.65l1-1.1v-.72L16.77,9.16a1.28,1.28,0,0,1,0-1.67l1-1.16V4.15L15.76,2.88Zm-1.27,13h0Z"/>
    <rect x="9.79" y="25.49" width="11.29" height="2.26" rx="0.87"/>
  </g>
</svg>
