<svg id="Layer_1" data-name="Layer 1" xmlns="http://www.w3.org/2000/svg" viewBox="0 0 32 32">
  <g>
    <path d="M26.83,31.43H6.63A5.54,5.54,0,0,1,1.1,25.9V2.13A1.5,1.5,0,0,1,2.6.63H23.31a1.5,1.5,0,0,1,1.5,1.5V19.35h5.54a1.51,1.51,0,0,1,1.5,1.5v5.56A5,5,0,0,1,26.83,31.43Zm0-3a2,2,0,0,0,2-2V22.35h-4v4.06A2,2,0,0,0,26.83,28.43ZM4.1,3.63V25.9a2.54,2.54,0,0,0,2.53,2.53H22.24a4.88,4.88,0,0,1-.43-2V3.63Z"/>
    <path d="M17.93,10.25H7.59a1.5,1.5,0,0,1,0-3H17.93a1.5,1.5,0,0,1,0,3Z"/>
    <path d="M17.93,17.5H7.59a1.5,1.5,0,0,1,0-3H17.93a1.5,1.5,0,0,1,0,3Z"/>
    <path d="M12.76,24.75H7.59a1.5,1.5,0,0,1,0-3h5.17a1.5,1.5,0,0,1,0,3Z"/>
  </g>
</svg>
