<svg id="Layer_1" data-name="Layer 1" xmlns="http://www.w3.org/2000/svg" viewBox="0 0 32 32">
  <g>
    <path d="M25.22,9.18H22.68v-2a6.68,6.68,0,0,0-13.36,0v2H6.78a4.53,4.53,0,0,0-4.53,4.53V27a4.53,4.53,0,0,0,4.53,4.53H25.22A4.53,4.53,0,0,0,29.75,27V13.71A4.53,4.53,0,0,0,25.22,9.18Zm-12.94-2a3.72,3.72,0,1,1,7.44,0v2H12.28ZM26.69,27a1.47,1.47,0,0,1-1.47,1.47H6.78A1.47,1.47,0,0,1,5.31,27V13.71a1.46,1.46,0,0,1,1.47-1.46H25.22a1.46,1.46,0,0,1,1.47,1.46Z"/>
    <path d="M16,16.87a1.48,1.48,0,0,0-1.48,1.48v4a1.48,1.48,0,1,0,3,0v-4A1.48,1.48,0,0,0,16,16.87Z"/>
  </g>
</svg>
