<svg id="Layer_1" data-name="Layer 1" xmlns="http://www.w3.org/2000/svg" viewBox="0 0 32 32">
  <g>
    <path d="M29.86,20.29h-8a1.5,1.5,0,0,0-1.5,1.5v8a1.5,1.5,0,0,0,1.5,1.5h8a1.5,1.5,0,0,0,1.5-1.5v-8A1.5,1.5,0,0,0,29.86,20.29Zm-1.5,8h-5v-5h5Z"/>
    <path d="M27.48,16.38a1.51,1.51,0,0,0,1.38.92,1.47,1.47,0,0,0,.58-.12,1.49,1.49,0,0,0,.81-2,25.63,25.63,0,0,0-4.34-7L27.3,6.89a1.5,1.5,0,0,0-2.13-2.12L23.81,6.13A25.59,25.59,0,0,0,15.42,1a1.5,1.5,0,0,0-1,2.82,22.53,22.53,0,0,1,7.29,4.41L2,27.94A1.5,1.5,0,0,0,3.07,30.5a1.53,1.53,0,0,0,1.06-.44L23.79,10.4A22.65,22.65,0,0,1,27.48,16.38Z"/>
  </g>
</svg>
