<svg id="Layer_1" data-name="Layer 1" xmlns="http://www.w3.org/2000/svg" viewBox="0 0 32 32">
  <g>
    <path d="M18.54,28.36a12.61,12.61,0,1,1,9.73-15.28,1.5,1.5,0,0,0,2.92-.7A15.61,15.61,0,1,0,16,31.61a15.8,15.8,0,0,0,3.15-.31,1.5,1.5,0,0,0-.61-2.94Z"/>
    <path d="M16,6.93a1.5,1.5,0,0,0-1.5,1.5V16a1.5,1.5,0,0,0,.44,1.06l2.21,2.21a1.5,1.5,0,0,0,2.12,0,1.49,1.49,0,0,0,0-2.12L17.5,15.38v-7A1.5,1.5,0,0,0,16,6.93Z"/>
    <path d="M31.11,23a4.33,4.33,0,0,0-1.73-1.28,16.57,16.57,0,0,0-2.35-.7,8.57,8.57,0,0,1-1.78-.56c-.28-.14-.32-.3-.32-.45a.66.66,0,0,1,.31-.57,2.74,2.74,0,0,1,2-.15,4.75,4.75,0,0,1,.87.33l.57.31a5.55,5.55,0,0,0,.66.31,1.72,1.72,0,0,0,.6.1,1.49,1.49,0,0,0,1.18-.59,2,2,0,0,0,.45-1.29,1.92,1.92,0,0,0-.2-.89,1.84,1.84,0,0,0-.65-.69A8.66,8.66,0,0,0,28,15.75v-.46a1.71,1.71,0,0,0-.52-1.3,1.9,1.9,0,0,0-2.57,0,1.73,1.73,0,0,0-.53,1.29v.53a5.6,5.6,0,0,0-2.63,1.51,4.18,4.18,0,0,0-1.18,3,3.65,3.65,0,0,0,.77,2.41A4.59,4.59,0,0,0,23.05,24a18.68,18.68,0,0,0,2.36.74c.57.14,1,.26,1.31.36a1.9,1.9,0,0,1,.6.32.29.29,0,0,1,.13.25.58.58,0,0,1-.29.56,4.12,4.12,0,0,1-2.62.08,6.38,6.38,0,0,1-1.41-.58,4.48,4.48,0,0,0-.67-.33,2.22,2.22,0,0,0-.61-.1,1.48,1.48,0,0,0-1.17.61,2,2,0,0,0-.43,1.28,1.88,1.88,0,0,0,.2.93,1.8,1.8,0,0,0,.64.65A8.83,8.83,0,0,0,24.42,30v.4a1.76,1.76,0,0,0,.51,1.3,1.8,1.8,0,0,0,1.3.5A1.74,1.74,0,0,0,28,30.37v-.51a5.46,5.46,0,0,0,2.65-1.46,4,4,0,0,0,1.18-2.92A3.78,3.78,0,0,0,31.11,23Z"/>
  </g>
</svg>
