<svg id="Layer_1" data-name="Layer 1" xmlns="http://www.w3.org/2000/svg" viewBox="0 0 32 32">
  <path d="M31.92,17.44a4.52,4.52,0,0,0-3-4.25V8.79a5.25,5.25,0,0,0-5.24-5.24H21.8a4.5,4.5,0,0,0-8.53-.07h-5A5.25,5.25,0,0,0,3,8.72v1.44a4.5,4.5,0,0,0,0,8.51v5a5.25,5.25,0,0,0,5.24,5.24h2.21a4.52,4.52,0,0,0,8.45-.22h5a5.25,5.25,0,0,0,5.25-5.24V21.61A4.54,4.54,0,0,0,31.92,17.44ZM27.38,19a1.54,1.54,0,1,1,1.54-1.54A1.54,1.54,0,0,1,27.38,19ZM17.52,3.45A1.53,1.53,0,1,1,16,5,1.54,1.54,0,0,1,17.52,3.45Zm-13,9.43A1.53,1.53,0,1,1,3,14.41,1.54,1.54,0,0,1,4.53,12.88ZM14.67,28.72a1.53,1.53,0,1,1,1.53-1.53A1.53,1.53,0,0,1,14.67,28.72Zm9.25-3h-5a4.5,4.5,0,0,0-8.58.22H8.27A2.25,2.25,0,0,1,6,23.67v-5a4.5,4.5,0,0,0,0-8.51V8.72A2.25,2.25,0,0,1,8.27,6.48h5a4.51,4.51,0,0,0,8.49.07h1.88a2.24,2.24,0,0,1,2.24,2.24v4.4a4.5,4.5,0,0,0,.29,8.6v1.66A2.24,2.24,0,0,1,23.92,25.69Z"/>
</svg>
