<svg id="Layer_1" data-name="Layer 1" xmlns="http://www.w3.org/2000/svg" viewBox="0 0 32 32">
  <g>
    <path d="M2,12.67a1.5,1.5,0,0,0,1.5-1.5V8.79A2.24,2.24,0,0,1,5.76,6.55h5a4.53,4.53,0,1,0,0-3h-5A5.25,5.25,0,0,0,.52,8.79v2.38A1.5,1.5,0,0,0,2,12.67ZM15,3.52a1.53,1.53,0,1,1-1.53,1.53A1.52,1.52,0,0,1,15,3.52Z"/>
    <path d="M13.87,29H8.79a2.24,2.24,0,0,1-2.24-2.24V23.72s0,0,0-.07a4.53,4.53,0,1,0-3,0s0,.05,0,.07v3.07A5.25,5.25,0,0,0,8.79,32h5.08a1.5,1.5,0,0,0,0-3ZM5.05,17.86a1.54,1.54,0,1,1-1.53,1.53A1.54,1.54,0,0,1,5.05,17.86Z"/>
    <path d="M30,17.87a1.5,1.5,0,0,0-1.5,1.5v5a2.24,2.24,0,0,1-2.24,2.24H24.83a4.57,4.57,0,1,0-.43,3h1.84a5.25,5.25,0,0,0,5.24-5.24v-5A1.5,1.5,0,0,0,30,17.87ZM20.4,29a1.53,1.53,0,1,1,1.53-1.53A1.53,1.53,0,0,1,20.4,29Z"/>
    <path d="M21.15,4.07h2.12a2.24,2.24,0,0,1,2.25,2.24V8.44a1.53,1.53,0,0,0,.08.49,4.52,4.52,0,1,0,2.76.17,1.46,1.46,0,0,0,.16-.66V6.31a5.25,5.25,0,0,0-5.25-5.24H21.15a1.5,1.5,0,0,0,0,3Zm5.56,10.77a1.53,1.53,0,1,1,1.53-1.53A1.53,1.53,0,0,1,26.71,14.84Z"/>
  </g>
</svg>
