<svg id="Layer_1" data-name="Layer 1" xmlns="http://www.w3.org/2000/svg" viewBox="0 0 32 32">
  <path d="M30.8.72H21.92a.48.48,0,0,0-.48.48V3.68H19a.48.48,0,0,0-.48.48V6.64H16a.48.48,0,0,0-.48.48V9.6H13a.47.47,0,0,0-.48.48v2.48H10.08A.47.47,0,0,0,9.6,13v2.48h-2V13a.48.48,0,0,0-.48-.48h-3a.47.47,0,0,0-.48.48V19a.47.47,0,0,0,.48.48H6.64v2H4.16a.48.48,0,0,0-.48.48V24.4H1.2a.48.48,0,0,0-.48.48V30.8a.47.47,0,0,0,.48.48H7.12a.48.48,0,0,0,.48-.48V28.32h2.48a.48.48,0,0,0,.48-.48V25.36h2v2.48a.47.47,0,0,0,.48.48H19a.47.47,0,0,0,.48-.48v-3A.48.48,0,0,0,19,24.4H16.48v-2H19a.47.47,0,0,0,.48-.48V19.44h2.48A.47.47,0,0,0,22.4,19V16.48h2.48a.48.48,0,0,0,.48-.48V13.52h2.48a.48.48,0,0,0,.48-.48V10.56H30.8a.48.48,0,0,0,.48-.48V1.2A.47.47,0,0,0,30.8.72ZM24.88,9.6a.48.48,0,0,0-.48.48v2.48H21.92a.48.48,0,0,0-.48.48v2.48H19a.49.49,0,0,0-.48.48v2.48H16a.49.49,0,0,0-.48.48v2.48h-2V19a.49.49,0,0,0-.48-.48H10.56v-2H13a.49.49,0,0,0,.48-.48V13.52H16a.49.49,0,0,0,.48-.48V10.56H19a.48.48,0,0,0,.48-.48V7.6h2.48a.48.48,0,0,0,.48-.48V4.64h5v5Z"/>
</svg>
