<?xml version="1.0" encoding="utf-8"?>
<!-- Generator: Adobe Illustrator 25.3.1, SVG Export Plug-In . SVG Version: 6.00 Build 0)  -->
<svg version="1.1" id="Layer_1" xmlns="http://www.w3.org/2000/svg" xmlns:xlink="http://www.w3.org/1999/xlink" x="0px" y="0px"
	 viewBox="0 0 32 32" style="enable-background:new 0 0 32 32;" xml:space="preserve">
<g>
	<path d="M9.9,15.2H5.8c-2.9,0-5.2-2.3-5.2-5.2V5.8c0-2.9,2.3-5.2,5.2-5.2h4.1c2.9,0,5.2,2.3,5.2,5.2V10
		C15.1,12.9,12.8,15.2,9.9,15.2z M5.8,3.6c-1.2,0-2.2,1-2.2,2.2V10c0,1.2,1,2.2,2.2,2.2h4.1c1.2,0,2.2-1,2.2-2.2V5.8
		c0-1.2-1-2.2-2.2-2.2H5.8z"/>
	<path d="M9.9,31.1H5.8c-2.9,0-5.2-2.3-5.2-5.2v-4.1c0-2.9,2.3-5.2,5.2-5.2h4.2c2.9,0,5.2,2.3,5.2,5.2v4.1
		C15.1,28.7,12.8,31.1,9.9,31.1z M5.8,19.5c-1.2,0-2.2,1-2.2,2.2v4.1c0,1.2,1,2.2,2.2,2.2h4.1c1.2,0,2.2-1,2.2-2.2v-4.1
		c0-1.2-1-2.2-2.2-2.2L5.8,19.5z"/>
	<path d="M25.9,15.2h-4.1c-2.9,0-5.2-2.3-5.2-5.2V5.8c0-2.9,2.3-5.2,5.2-5.2h4.1c2.9,0,5.2,2.3,5.2,5.2V10
		C31.1,12.9,28.8,15.2,25.9,15.2z M21.8,3.6c-1.2,0-2.2,1-2.2,2.2V10c0,1.2,1,2.2,2.2,2.2h4.1c1.2,0,2.2-1,2.2-2.2V5.8
		c0-1.2-1-2.2-2.2-2.2H21.8z"/>
	<path d="M20.2,23.2c-1.4,0-2.5-1.1-2.5-2.5c0-1.4,1.1-2.5,2.5-2.5s2.5,1.1,2.5,2.5c0,0,0,0,0,0C22.7,22.1,21.6,23.2,20.2,23.2z"/>
	<path d="M26.8,23.2c-1.4,0-2.5-1.1-2.5-2.5c0-1.4,1.1-2.5,2.5-2.5s2.5,1.1,2.5,2.5c0,0,0,0,0,0C29.3,22.1,28.2,23.2,26.8,23.2z"/>
	<path d="M20.2,29.3c-1.4,0-2.5-1.1-2.5-2.5c0-1.4,1.1-2.5,2.5-2.5s2.5,1.1,2.5,2.5c0,0,0,0,0,0C22.7,28.2,21.6,29.3,20.2,29.3z"/>
	<path d="M26.8,29.3c-1.4,0-2.5-1.1-2.5-2.5c0-1.4,1.1-2.5,2.5-2.5s2.5,1.1,2.5,2.5c0,0,0,0,0,0C29.3,28.2,28.2,29.3,26.8,29.3z"/>
</g>
</svg>
