<svg id="Layer_1" data-name="Layer 1" xmlns="http://www.w3.org/2000/svg" viewBox="0 0 32 32">
  <g>
    <path d="M9.68,18.62a1.49,1.49,0,0,0,0,2.12l5.42,5.41a1.45,1.45,0,0,0,1.06.44,1.47,1.47,0,0,0,1.06-.44l5.42-5.41a1.51,1.51,0,0,0,0-2.12,1.49,1.49,0,0,0-2.12,0l-2.86,2.85V2.56a1.5,1.5,0,1,0-3,0V21.47L11.8,18.62A1.49,1.49,0,0,0,9.68,18.62Z"/>
    <path d="M25.9,12H22.2a1.5,1.5,0,0,0,0,3h3.7a2.14,2.14,0,0,1,2.24,2v9.25a2.14,2.14,0,0,1-2.24,2H6.41a2.15,2.15,0,0,1-2.24-2V17a2.15,2.15,0,0,1,2.24-2h3.87a1.5,1.5,0,1,0,0-3H6.41a5.15,5.15,0,0,0-5.24,5v9.25a5.14,5.14,0,0,0,5.24,5H25.9a5.14,5.14,0,0,0,5.24-5V17A5.15,5.15,0,0,0,25.9,12Z"/>
  </g>
</svg>
