<svg id="Layer_1" data-name="Layer 1" xmlns="http://www.w3.org/2000/svg" viewBox="0 0 32 32">
  <g>
    <path d="M1.75,12.21a1.5,1.5,0,0,1-1.5-1.5v-5A5.25,5.25,0,0,1,5.49.52h5.23a1.5,1.5,0,0,1,0,3H5.49A2.24,2.24,0,0,0,3.25,5.76v5A1.5,1.5,0,0,1,1.75,12.21Z"/>
    <path d="M10.57,31.48H5.49A5.25,5.25,0,0,1,.25,26.24v-5a1.5,1.5,0,0,1,3,0v5a2.24,2.24,0,0,0,2.24,2.24h5.08a1.5,1.5,0,0,1,0,3Z"/>
    <path d="M26,31.48H20.88a1.5,1.5,0,0,1,0-3H26a2.24,2.24,0,0,0,2.24-2.24v-5a1.5,1.5,0,0,1,3,0v5A5.25,5.25,0,0,1,26,31.48Z"/>
    <path d="M29.71,12.19a1.5,1.5,0,0,1-1.5-1.5V5.76A2.24,2.24,0,0,0,26,3.52H20.74a1.5,1.5,0,0,1,0-3H26a5.25,5.25,0,0,1,5.24,5.24v4.93A1.5,1.5,0,0,1,29.71,12.19Z"/>
    <path d="M28.42,17.5H3a1.5,1.5,0,1,1,0-3H28.42a1.5,1.5,0,0,1,0,3Z"/>
  </g>
</svg>
