<svg id="Layer_1" data-name="Layer 1" xmlns="http://www.w3.org/2000/svg" viewBox="0 0 32 32">
  <g>
    <path d="M5.43,10.67V14.5H3.53a1.5,1.5,0,0,0,0,3H28.92a1.5,1.5,0,0,0,0-3H26.57V10.67a5.25,5.25,0,0,0-5.24-5.24H10.67A5.25,5.25,0,0,0,5.43,10.67Zm5.24-2.24H21.33a2.24,2.24,0,0,1,2.24,2.24V14.5H8.43V10.67A2.24,2.24,0,0,1,10.67,8.43Z"/>
    <path d="M26.57,21.33V20.21a1.5,1.5,0,0,0-3,0v1.12a2.24,2.24,0,0,1-2.24,2.24H10.67a2.24,2.24,0,0,1-2.24-2.24V20.21a1.5,1.5,0,0,0-3,0v1.12a5.25,5.25,0,0,0,5.24,5.24H21.33A5.25,5.25,0,0,0,26.57,21.33Z"/>
    <path d="M2,10.08a1.5,1.5,0,0,0,1.5-1.5V5.76A2.24,2.24,0,0,1,5.76,3.52H8.83a1.5,1.5,0,0,0,0-3H5.76A5.25,5.25,0,0,0,.52,5.76V8.58A1.5,1.5,0,0,0,2,10.08Z"/>
    <path d="M8.83,28.48H5.76a2.24,2.24,0,0,1-2.24-2.24V23.39a1.5,1.5,0,0,0-3,0v2.85a5.25,5.25,0,0,0,5.24,5.24H8.83a1.5,1.5,0,1,0,0-3Z"/>
    <path d="M30,21.89a1.5,1.5,0,0,0-1.5,1.5v2.85a2.24,2.24,0,0,1-2.24,2.24H23.43a1.5,1.5,0,0,0,0,3h2.81a5.25,5.25,0,0,0,5.24-5.24V23.39A1.5,1.5,0,0,0,30,21.89Z"/>
    <path d="M26.24.52H23.43a1.5,1.5,0,0,0,0,3h2.81a2.24,2.24,0,0,1,2.24,2.24V8.58a1.5,1.5,0,1,0,3,0V5.76A5.25,5.25,0,0,0,26.24.52Z"/>
  </g>
</svg>
