<svg id="Layer_1" data-name="Layer 1" xmlns="http://www.w3.org/2000/svg" viewBox="0 0 32 32">
  <g>
    <path d="M15.74,20.69V14.85a3.51,3.51,0,0,0-3.51-3.5h-.08v-.29a4.16,4.16,0,1,0-8.31,0v.29H3.76a3.51,3.51,0,0,0-3.51,3.5v5.84a3.51,3.51,0,0,0,3.51,3.5h8.47A3.51,3.51,0,0,0,15.74,20.69Zm-8.9-9.63a1.16,1.16,0,1,1,2.31,0v.29H6.84ZM3.25,20.69V14.85a.5.5,0,0,1,.51-.5h8.47a.5.5,0,0,1,.51.5v5.84a.51.51,0,0,1-.51.5H3.76A.51.51,0,0,1,3.25,20.69Z"/>
    <path d="M8,16a1.5,1.5,0,0,0-1.5,1.5v.83a1.5,1.5,0,0,0,3,0v-.83A1.5,1.5,0,0,0,8,16Z"/>
    <path d="M26.51.23H9.08A5.25,5.25,0,0,0,3.84,5.47a1.5,1.5,0,0,0,3,0A2.24,2.24,0,0,1,9.08,3.23H26.51a2.24,2.24,0,0,1,2.24,2.24v21a2.24,2.24,0,0,1-2.24,2.24H9.08a2.24,2.24,0,0,1-2.24-2.24,1.5,1.5,0,0,0-3,0,5.25,5.25,0,0,0,5.24,5.24H26.51a5.25,5.25,0,0,0,5.24-5.24v-21A5.25,5.25,0,0,0,26.51.23Z"/>
    <circle cx="17.79" cy="19.71" r="1.5"/>
    <circle cx="25.79" cy="19.71" r="1.5"/>
    <circle cx="21.79" cy="19.71" r="1.5"/>
  </g>
</svg>
