<svg id="Layer_1" data-name="Layer 1" xmlns="http://www.w3.org/2000/svg" viewBox="0 0 32 32">
  <g>
    <path d="M2.35,11.12H17.2a5.4,5.4,0,0,0,10.37,0h2.08a1.5,1.5,0,0,0,0-3H27.57a5.39,5.39,0,0,0-10.37,0H2.35a1.5,1.5,0,0,0,0,3Zm20-3.91A2.41,2.41,0,1,1,20,9.62,2.41,2.41,0,0,1,22.38,7.21Z"/>
    <path d="M29.65,20.88H14.8a5.4,5.4,0,0,0-10.37,0H2.35a1.5,1.5,0,0,0,0,3H4.43a5.39,5.39,0,0,0,10.37,0H29.65a1.5,1.5,0,0,0,0-3Zm-20,3.91A2.41,2.41,0,1,1,12,22.38,2.41,2.41,0,0,1,9.62,24.79Z"/>
  </g>
</svg>
