<svg id="Layer_1" data-name="Layer 1" xmlns="http://www.w3.org/2000/svg" viewBox="0 0 32 32">
  <g>
    <path d="M16,16.48a8,8,0,1,1,8-8A8,8,0,0,1,16,16.48ZM16,3.39a5,5,0,1,0,5,5A5,5,0,0,0,16,3.39Z"/>
    <path d="M27.67,31.43H4.33A3.43,3.43,0,0,1,1.55,30,3.47,3.47,0,0,1,1,27c1.68-5.62,7.85-9.55,15-9.55S29.32,21.34,31,27A3.47,3.47,0,0,1,30.45,30,3.43,3.43,0,0,1,27.67,31.43ZM16,20.41c-5.74,0-10.84,3.12-12.12,7.41a.47.47,0,0,0,.07.42.49.49,0,0,0,.38.19H27.67a.49.49,0,0,0,.38-.19.47.47,0,0,0,.07-.42C26.84,23.53,21.74,20.41,16,20.41Z"/>
  </g>
</svg>
