<?xml version="1.0" encoding="utf-8"?>
<!-- Generator: Adobe Illustrator 25.3.1, SVG Export Plug-In . SVG Version: 6.00 Build 0)  -->
<svg version="1.1" id="Layer_1" xmlns="http://www.w3.org/2000/svg" xmlns:xlink="http://www.w3.org/1999/xlink" x="0px" y="0px"
	 viewBox="0 0 32 32" style="enable-background:new 0 0 32 32;" xml:space="preserve">
<g>
	<path d="M31.4,25.5L18.7,3.4c-0.8-1.5-2.7-2-4.2-1.1C14,2.6,13.6,3,13.3,3.4L0.6,25.5c-0.6,0.9-0.6,2.1,0,3.1
		c0.5,1,1.6,1.6,2.7,1.5h25.5c1.7,0,3.1-1.4,3.1-3.1C31.8,26.5,31.7,26,31.4,25.5z M28.7,27.1H3.3L3.2,27L15.9,4.9h0.1L28.8,27
		L28.7,27.1z"/>
	<path d="M16,10.6c-0.8,0-1.5,0.7-1.5,1.5v7.2c0,0.8,0.7,1.5,1.5,1.5c0.8,0,1.5-0.7,1.5-1.5v-7.2C17.5,11.3,16.8,10.6,16,10.6z"/>
	<path d="M17.4,22.8c0-0.1-0.1-0.2-0.1-0.3c-0.1-0.1-0.1-0.2-0.2-0.2c-0.4-0.3-0.9-0.5-1.4-0.4c-0.2,0-0.4,0.1-0.5,0.2
		c-0.1,0.1-0.2,0.1-0.2,0.2c-0.1,0.1-0.1,0.1-0.2,0.2c-0.1,0.1-0.1,0.2-0.1,0.3c-0.1,0.2-0.1,0.4-0.1,0.6c0,0.4,0.2,0.8,0.4,1.1
		c0.1,0.1,0.1,0.1,0.2,0.2c0.1,0.1,0.2,0.1,0.3,0.1c0.1,0,0.2,0.1,0.3,0.1c0.2,0,0.4,0,0.6,0c0.1,0,0.2,0,0.3-0.1l0.3-0.1
		c0.1-0.1,0.2-0.1,0.2-0.2c0.3-0.3,0.4-0.7,0.4-1.1C17.5,23.2,17.5,23,17.4,22.8z"/>
</g>
</svg>
